<svg width="111" height="169" viewBox="0 0 111 169" fill="none" xmlns="http://www.w3.org/2000/svg">
<rect x="1.5" y="0.5" width="89" height="146" rx="8.5" fill="#8D8D8D" stroke="white"/>
<path d="M91 140C82.9909 42.844 1 153.394 1 69.2553M1 46.1454C1 130.284 82.9909 21.6206 91 118.777M1 23.0355C1 107.174 82.9909 -4.31915 91 92.8369M1 7C1 91.139 82.9909 -23.1844 91 73.9716" stroke="white"/>
<rect x="7.5" y="7.5" width="89" height="146" rx="8.5" fill="#8D8D8D" stroke="white"/>
<path d="M97 147C88.9909 49.844 7 160.394 7 76.2553M7 53.1454C7 137.284 88.9909 28.6206 97 125.777M7 30.0355C7 114.174 88.9909 2.68085 97 99.8369M7 14C7 98.139 88.9909 -16.1844 97 80.9716" stroke="white"/>
<rect x="13.5" y="14.5" width="89" height="146" rx="8.5" fill="#8D8D8D" stroke="white"/>
<path d="M103 154C94.9909 56.844 13 167.394 13 83.2553M13 60.1454C13 144.284 94.9909 35.6206 103 132.777M13 37.0355C13 121.174 94.9909 9.68085 103 106.837M13 21C13 105.139 94.9909 -9.1844 103 87.9716" stroke="white"/>
<rect x="21.3987" y="18.0778" width="89" height="146" rx="8.5" transform="rotate(2.70785 21.3987 18.0778)" fill="#8D8D8D" stroke="white"/>
<path d="M104.208 161.65C100.798 64.2243 13.6756 170.778 17.6506 86.7327M18.7424 63.6486C14.7674 147.694 101.8 43.0246 105.211 140.451M19.8342 40.5644C15.8592 124.609 103.026 17.1139 106.436 114.54M20.5918 24.5469C16.6168 108.592 103.917 -1.7303 107.327 95.6956" stroke="white"/>
</svg>
