<svg width="39" height="47" viewBox="0 0 39 47" fill="none" xmlns="http://www.w3.org/2000/svg">
<path d="M4.15809 41.8824L0.690674 0.732727H38.7895L35.319 41.8756L19.7167 46.4531L4.15809 41.8824Z" fill="#1572B6"/>
<path d="M20.5005 42.9545L33.61 39.2561L36.6943 4.09766H20.5005V42.9545Z" fill="#33A9DC"/>
<path d="M20.5 19.0059H27.063L27.5168 13.838H20.5V8.79114H32.9371L32.8182 10.1451L31.5994 24.0524H20.5V19.0059V19.0059Z" fill="white"/>
<path d="M20.5298 32.113L20.508 32.1194L14.9843 30.6014L14.6307 26.5763H9.65259L10.3477 34.5005L20.5071 37.3702L20.5302 37.3634V32.113H20.5298Z" fill="#EBEBEB"/>
<path d="M26.6417 23.839L26.0441 30.5978L20.5125 32.1171V37.3679L30.6803 34.5006L30.7551 33.6478L31.6181 23.839H26.6417V23.839Z" fill="white"/>
<path d="M20.5174 8.79114V13.8376H8.5372L8.43744 12.7034L8.21167 10.1451L8.09277 8.79114H20.5174ZM20.5001 19.0064V24.0533H15.0463L14.947 22.9191L14.7208 20.3603L14.6019 19.0064H20.5001Z" fill="#EBEBEB"/>
</svg>
