<svg width="113" height="119" viewBox="0 0 113 119" fill="none" xmlns="http://www.w3.org/2000/svg">
<path d="M111.862 14.2629V116.355C111.862 116.952 111.623 117.525 111.2 117.947C110.776 118.369 110.202 118.607 109.602 118.607H2.25984C1.66064 118.607 1.08611 118.369 0.662408 117.947C0.238708 117.525 0.000474802 116.952 0 116.355V2.25204C0.000473806 1.6549 0.238708 1.08237 0.662408 0.660132C1.08611 0.237895 1.66064 0.000472169 2.25984 0H96.0433L111.862 14.2629Z" fill="#F0F0F0"/>
<path d="M19.3903 24.8469C19.0194 24.8531 18.6658 25.0044 18.4058 25.268C18.1457 25.5316 18 25.8864 18 26.2561C18 26.6257 18.1457 26.9806 18.4058 27.2442C18.6658 27.5078 19.0194 27.659 19.3903 27.6653H56.6794C56.8656 27.6691 57.0507 27.6363 57.2241 27.5686C57.3975 27.501 57.5558 27.3999 57.6899 27.2711C57.8241 27.1423 57.9313 26.9884 58.0056 26.8182C58.0798 26.648 58.1196 26.4649 58.1227 26.2793C58.1258 26.0937 58.092 25.9094 58.0234 25.7369C57.9548 25.5643 57.8526 25.407 57.7229 25.2739C57.5931 25.1408 57.4382 25.0346 57.2671 24.9613C57.096 24.888 56.912 24.8491 56.7258 24.8469C56.7103 24.8466 56.6949 24.8466 56.6794 24.8469H19.3903Z" fill="#1B2954"/>
<path d="M19.3904 38.0666C19.0195 38.0728 18.6659 38.2241 18.4058 38.4876C18.1458 38.7512 18 39.1061 18 39.4758C18 39.8455 18.1458 40.2003 18.4058 40.4639C18.6659 40.7275 19.0195 40.8788 19.3904 40.885H93.2136C93.5877 40.8897 93.9484 40.7464 94.2168 40.4866C94.4851 40.2268 94.6392 39.8716 94.6454 39.4988C94.6515 39.1261 94.5092 38.766 94.2495 38.4976C93.9899 38.2292 93.6341 38.0742 93.26 38.0666C93.2446 38.0663 93.2291 38.0663 93.2136 38.0666H19.3904Z" fill="#1B2954"/>
<path d="M19.3904 51.2853C19.0195 51.2916 18.6659 51.4428 18.4058 51.7064C18.1458 51.97 18 52.3249 18 52.6946C18 53.0642 18.1458 53.4191 18.4058 53.6827C18.6659 53.9463 19.0195 54.0975 19.3904 54.1038H93.2136C93.3998 54.1075 93.5848 54.0746 93.7582 54.007C93.9316 53.9393 94.0898 53.8382 94.2239 53.7094C94.3579 53.5806 94.4652 53.4267 94.5394 53.2566C94.6136 53.0864 94.6534 52.9033 94.6565 52.7178C94.6595 52.5323 94.6258 52.348 94.5572 52.1755C94.4886 52.0029 94.3865 51.8456 94.2568 51.7126C94.127 51.5795 93.9722 51.4732 93.8012 51.3999C93.6301 51.3266 93.4462 51.2877 93.26 51.2853C93.2446 51.2851 93.2291 51.2851 93.2136 51.2853H19.3904Z" fill="#1B2954"/>
<path d="M19.3903 64.5041C19.0194 64.5104 18.6658 64.6616 18.4058 64.9252C18.1457 65.1888 18 65.5436 18 65.9133C18 66.283 18.1457 66.6378 18.4058 66.9014C18.6658 67.165 19.0194 67.3162 19.3903 67.3225H93.2135C93.3997 67.3263 93.5848 67.2935 93.7582 67.2258C93.9316 67.1582 94.0899 67.0571 94.224 66.9283C94.3581 66.7995 94.4654 66.6456 94.5397 66.4754C94.614 66.3052 94.6538 66.1221 94.6568 65.9365C94.6599 65.751 94.6261 65.5666 94.5575 65.3941C94.4889 65.2216 94.3868 65.0642 94.257 64.9311C94.1272 64.798 93.9723 64.6918 93.8012 64.6185C93.6301 64.5452 93.4461 64.5064 93.2599 64.5041C93.2444 64.5038 93.229 64.5038 93.2135 64.5041H19.3903Z" fill="#1B2954"/>
<path d="M19.3903 77.7238C19.0194 77.7301 18.6658 77.8813 18.4058 78.1449C18.1457 78.4085 18 78.7634 18 79.133C18 79.5027 18.1457 79.8575 18.4058 80.1211C18.6658 80.3847 19.0194 80.5359 19.3903 80.5422H93.2135C93.3997 80.546 93.5848 80.5132 93.7582 80.4455C93.9316 80.3779 94.0899 80.2768 94.224 80.148C94.3581 80.0192 94.4654 79.8653 94.5397 79.6951C94.614 79.525 94.6538 79.3418 94.6568 79.1563C94.6599 78.9707 94.6261 78.7864 94.5575 78.6138C94.4889 78.4413 94.3868 78.284 94.257 78.1509C94.1272 78.0178 93.9723 77.9115 93.8012 77.8383C93.6301 77.765 93.4461 77.7261 93.2599 77.7238C93.2444 77.7236 93.229 77.7236 93.2135 77.7238H19.3903Z" fill="#1B2954"/>
<path d="M19.3903 90.9426C19.0194 90.9488 18.6658 91.1001 18.4058 91.3637C18.1457 91.6273 18 91.9821 18 92.3518C18 92.7215 18.1457 93.0763 18.4058 93.3399C18.6658 93.6035 19.0194 93.7547 19.3903 93.761H93.2135C93.3997 93.7648 93.5848 93.732 93.7582 93.6643C93.9316 93.5967 94.0899 93.4956 94.224 93.3668C94.3581 93.238 94.4654 93.0841 94.5397 92.9139C94.614 92.7437 94.6538 92.5606 94.6568 92.375C94.6599 92.1895 94.6261 92.0051 94.5575 91.8326C94.4889 91.6601 94.3868 91.5027 94.257 91.3696C94.1272 91.2365 93.9723 91.1303 93.8012 91.057C93.6301 90.9837 93.4461 90.9448 93.2599 90.9426C93.2444 90.9423 93.229 90.9423 93.2135 90.9426H19.3903Z" fill="#1B2954"/>
<path opacity="0.2" d="M112.256 14.2629H97.9438C97.5443 14.2629 97.1611 14.1047 96.8785 13.8232C96.596 13.5416 96.4373 13.1597 96.4373 12.7615V0L112.256 14.2629Z" fill="black"/>
</svg>
