<svg width="36" height="36" viewBox="0 0 36 36" fill="none" xmlns="http://www.w3.org/2000/svg">
<path d="M0 18C0 8.0589 8.0589 0 18 0C27.9411 0 36 8.0589 36 18C36 27.9411 27.9411 36 18 36C8.0589 36 0 27.9411 0 18Z" fill="#333333"/>
<path d="M14.4 28.7999C16.3883 28.7999 18 27.1882 18 25.1999V21.5999H14.4C12.4118 21.5999 10.8 23.2118 10.8 25.1999C10.8 27.1882 12.4118 28.7999 14.4 28.7999Z" fill="#0ACF83"/>
<path d="M10.8 18C10.8 16.0117 12.4118 14.4 14.4 14.4H18V21.6H14.4C12.4118 21.6 10.8 19.9882 10.8 18Z" fill="#A259FF"/>
<path d="M10.8 10.8C10.8 8.81175 12.4118 7.19998 14.4 7.19998H18V14.4H14.4C12.4118 14.4 10.8 12.7882 10.8 10.8Z" fill="#F24E1E"/>
<path d="M18 7.19998H21.6C23.5882 7.19998 25.2 8.81175 25.2 10.8C25.2 12.7882 23.5882 14.4 21.6 14.4H18V7.19998Z" fill="#FF7262"/>
<path d="M25.2 18C25.2 19.9882 23.5882 21.6 21.6 21.6C19.6117 21.6 18 19.9882 18 18C18 16.0117 19.6117 14.4 21.6 14.4C23.5882 14.4 25.2 16.0117 25.2 18Z" fill="#1ABCFE"/>
</svg>
