<svg width="100" height="97" viewBox="0 0 100 97" fill="none" xmlns="http://www.w3.org/2000/svg">
<path d="M50.0001 0.952637C38.1275 0.953117 26.6425 5.07257 17.6 12.5739C8.55747 20.0752 2.54764 30.4689 0.645802 41.8952C-1.25604 53.3216 1.07423 65.0349 7.21963 74.9393C13.365 84.8437 22.9246 92.293 34.1877 95.9541C36.6877 96.3808 37.6252 94.9184 37.6252 93.6385C37.6252 92.4808 37.5627 88.6416 37.5627 84.5589C25.0001 86.8135 21.7501 81.5731 20.7501 78.8309C19.6405 76.1639 17.8815 73.8005 15.6251 71.9448C13.8751 71.0308 11.3751 68.7761 15.5626 68.7152C17.1615 68.8844 18.6951 69.4269 20.0333 70.2967C21.3715 71.1665 22.475 72.338 23.2501 73.712C23.934 74.9097 24.8535 75.9642 25.9561 76.8149C27.0586 77.6656 28.3225 78.2958 29.6753 78.6694C31.0281 79.043 32.4432 79.1527 33.8395 78.9921C35.2359 78.8316 36.586 78.404 37.8125 77.7338C38.029 75.2555 39.1618 72.9383 41.0001 71.2137C29.8751 69.995 18.2501 65.7901 18.2501 47.1434C18.1799 42.2984 20.0136 37.6107 23.3751 34.0418C21.8465 29.8309 22.0254 25.2097 23.8751 21.1231C23.8751 21.1231 28.0625 19.8434 37.6251 26.12C45.8066 23.9261 54.4437 23.9261 62.6251 26.12C72.1875 19.7825 76.3751 21.1231 76.3751 21.1231C78.2251 25.2097 78.404 29.8309 76.8751 34.0418C80.2468 37.6046 82.0821 42.2963 82.0001 47.1434C82.0001 65.8511 70.3125 69.995 59.1876 71.2137C60.3809 72.3929 61.2999 73.8087 61.8822 75.3648C62.4646 76.921 62.6966 78.5811 62.5626 80.2325C62.5626 86.7529 62.5001 91.9933 62.5001 93.6387C62.5001 94.9184 63.4376 96.4418 65.9376 95.9543C77.1809 92.2633 86.713 84.7966 92.8322 74.8871C98.9514 64.9776 101.26 53.2703 99.3445 41.855C97.4295 30.4398 91.416 20.0596 82.3775 12.5674C73.3389 5.07518 61.8637 0.958657 50.0001 0.952637Z" fill="#F0F0F0"/>
</svg>
