<svg width="20" height="23" viewBox="0 0 20 23" fill="none" xmlns="http://www.w3.org/2000/svg">
<path d="M18.1155 4.90134C18.0343 4.79355 17.9475 4.69008 17.8555 4.59134C17.9481 4.34478 18.0184 4.09043 18.0655 3.83134C18.2049 2.88353 18.0839 1.91568 17.7155 1.03134C17.7155 1.03134 16.5955 0.681336 14.0255 2.41134C12.9345 2.11007 11.8075 1.95868 10.6755 1.96134C9.54039 1.95935 8.41017 2.11072 7.31554 2.41134C4.74554 0.661336 3.62554 1.03134 3.62554 1.03134C3.26164 1.90633 3.14072 2.86333 3.27554 3.80134C3.32299 4.0712 3.39668 4.33579 3.49554 4.59134C3.40554 4.69134 3.31554 4.80134 3.23554 4.90134C2.48931 5.83734 2.09319 7.00447 2.11554 8.20134C2.11317 8.48519 2.12652 8.76896 2.15554 9.05134C2.47548 13.4813 5.42554 14.5113 8.23554 14.8313C7.8378 15.2012 7.56811 15.688 7.46554 16.2213C7.3726 16.577 7.32885 16.9438 7.33554 17.3113V18.6209C6.21732 18.7203 5.06906 18.5576 4.71335 17.5596C4.33095 16.6046 3.69701 15.771 2.87888 15.1475C2.81943 15.1149 2.76288 15.0774 2.70988 15.0352C2.63804 14.8462 2.51069 14.6834 2.34458 14.5682C2.17847 14.453 1.98138 14.3907 1.77922 14.3896H1.77441C1.51001 14.3896 1.25634 14.4942 1.06892 14.6807C0.881508 14.8672 0.775611 15.1204 0.774413 15.3848C0.770513 16.1973 1.5835 16.7217 1.91699 16.9004C2.30592 17.2923 2.61883 17.7528 2.83984 18.2588C3.2041 19.2822 4.26904 20.8369 7.30566 20.6348C7.30666 20.6699 7.30766 20.7031 7.30811 20.7334L7.3125 21.001C7.31247 21.1323 7.33831 21.2624 7.38855 21.3837C7.4388 21.5051 7.51245 21.6153 7.60532 21.7082C7.69819 21.801 7.80844 21.8747 7.92978 21.9249C8.05112 21.9752 8.18117 22.001 8.3125 22.001L8.31561 22.0004V22.001H13.0267C13.1581 22.0011 13.2881 21.9752 13.4095 21.925C13.5308 21.8747 13.6411 21.8011 13.7339 21.7082C13.8268 21.6153 13.9004 21.5051 13.9507 21.3838C14.0009 21.2624 14.0268 21.1324 14.0267 21.001C14.0267 21.001 14.0341 17.8414 14.0341 17.3114C14.0407 16.9438 13.997 16.5771 13.9041 16.2214L13.9022 16.2153L13.9056 16.2214C13.897 16.1864 13.8839 16.1579 13.8745 16.1239C13.7628 15.6286 13.5048 15.1782 13.134 14.8313L13.1456 14.8522C13.1388 14.846 13.1324 14.8373 13.1255 14.8313C15.9355 14.5113 18.8655 13.4613 19.1855 9.05133C19.2145 8.76895 19.2279 8.48518 19.2255 8.20133C19.2432 7.00685 18.8515 5.84231 18.1155 4.90134V4.90134Z" fill="#FDFDFE"/>
</svg>
