<svg width="41" height="46" viewBox="0 0 41 46" fill="none" xmlns="http://www.w3.org/2000/svg">
<path d="M40.9253 0.173584L37.2035 41.283L20.4733 45.856L3.78933 41.2894L0.0712891 0.173584H40.9253Z" fill="#E44D26"/>
<path d="M20.4983 42.3605L34.0171 38.6653L37.1975 3.53531H20.4983V42.3605Z" fill="#F16529"/>
<path d="M13.2631 13.6208H20.4983V8.57816H7.67358L7.79593 9.931L9.05306 23.8273H20.4983V18.7846H13.7305L13.2631 13.6208V13.6208ZM14.4158 26.3487H9.28158L9.99806 34.2665L20.4748 37.1339L20.4983 37.1276V31.881L20.4759 31.8869L14.7799 30.3705L14.4158 26.3487V26.3487Z" fill="#EBEBEB"/>
<path d="M20.4806 23.8273H26.7786L26.1848 30.3673L20.4805 31.8853V37.1315L30.9655 34.2665L31.0424 33.4145L32.2444 20.1387L32.3692 18.7846H20.4806V23.8273ZM20.4806 13.6085V13.6208H32.8345L32.937 12.4875L33.1702 9.931L33.2924 8.57816H20.4806V13.6087V13.6085Z" fill="white"/>
</svg>
