<svg width="41" height="47" viewBox="0 0 41 47" fill="none" xmlns="http://www.w3.org/2000/svg">
<path d="M41 0.365662H0L3.84365 42.2531L20.4979 47L37.1522 42.2531L41 0.365662Z" fill="#E6A329"/>
<path d="M20.498 3.77838V43.4504L33.9918 39.6087L37.2744 3.77838H20.498Z" fill="#F1BF22"/>
<path d="M31.233 8.91705H10.4856L9.04053 24.5986L9.07028 24.501H26.6963L26.1222 31.136L20.4984 32.7618L14.7916 31.1098L14.4498 27.094H9.26963L10.0086 35.1183L20.4984 38.1108L30.9929 35.1183L32.438 19.3675H13.7317L13.9718 14.1197H26.9504L27.1446 17.1265H32.3686L31.233 8.91705Z" fill="white"/>
<path d="M20.5026 8.91705H10.4856L9.04053 24.5986L9.07028 24.501H20.5021V19.3854H14.4613L14.7014 14.1376H20.5026V8.91705ZM14.4613 27.0966H9.2691L10.0081 35.1167L20.4979 38.1061V32.7692L14.7911 31.1129L14.4613 27.0966Z" fill="#EBEBEB"/>
</svg>
