<svg width="77" height="89" viewBox="0 0 77 89" fill="none" xmlns="http://www.w3.org/2000/svg">
<path fill-rule="evenodd" clip-rule="evenodd" d="M38.5 0.847656L57.416 11.6152L76.332 22.6738V44.5V66.3262L57.416 77.3848L38.5 88.1523L19.584 77.3848L0.667969 66.3262V44.5V22.6738L19.584 11.6152L38.5 0.847656Z" fill="#F0F0F0"/>
<path fill-rule="evenodd" clip-rule="evenodd" d="M38.5 88.1523L19.584 77.3848L0.667969 66.3262V44.5V22.6738L19.584 11.6152L38.5 0.847656V88.1523Z" fill="#F0F0F0"/>
<path fill-rule="evenodd" clip-rule="evenodd" d="M38.5 8.12305L54.2148 17.1445L69.9297 26.166V44.5V62.834L54.2148 71.8555L38.5 80.877L22.7852 71.8555L7.07031 62.834V44.5V26.166L22.7852 17.1445L38.5 8.12305Z" fill="#F0F0F0"/>
<path fill-rule="evenodd" clip-rule="evenodd" d="M34.7168 59.6328H41.9922V45.6641C41.9922 43.0449 43.1562 41.8809 45.4844 41.8809C48.1035 41.8809 49.2676 43.0449 49.2676 45.6641V59.6328H56.252V47.4102C56.252 39.2617 55.0879 33.7324 46.6484 34.6055C42.8652 35.1875 42.8652 36.6426 41.9922 37.8067V34.6055H34.7168V59.6328Z" fill="#1B2954"/>
<path fill-rule="evenodd" clip-rule="evenodd" d="M23.9492 59.6328H31.2246V34.6055H23.9492V59.6328Z" fill="#1B2954"/>
<path fill-rule="evenodd" clip-rule="evenodd" d="M26.8593 25.584C22.203 26.7481 23.9491 33.7325 28.6054 32.5684C32.9706 31.6953 31.5155 24.711 26.8593 25.584Z" fill="#1B2954"/>
</svg>
