<svg width="50" height="50" viewBox="0 0 50 50" fill="none" xmlns="http://www.w3.org/2000/svg">
<rect width="50" height="50" fill="#133A75"/>
<path d="M14.6719 15.9375V33H12.4102V15.9375H14.6719ZM24.9727 15.9375L17.8828 23.8945L13.8984 28.0312L13.5234 25.6172L16.5234 22.3125L22.2539 15.9375H24.9727ZM22.793 33L16.4766 24.6797L17.8242 22.8867L25.4883 33H22.793ZM29.7422 15.9375V33H27.4805V15.9375H29.7422ZM40.043 15.9375L32.9531 23.8945L28.9688 28.0312L28.5938 25.6172L31.5938 22.3125L37.3242 15.9375H40.043ZM37.8633 33L31.5469 24.6797L32.8945 22.8867L40.5586 33H37.8633Z" fill="white"/>
</svg>
