<svg width="100" height="124" viewBox="0 0 100 124" fill="none" xmlns="http://www.w3.org/2000/svg">
<path d="M90 124H10C4.486 124 0 119.514 0 114V10C0 4.486 4.486 0 10 0H50.687C53.358 0 55.87 1.041 57.757 2.929L97.071 42.243C98.96 44.132 100 46.642 100 49.313V114C100 119.514 95.514 124 90 124ZM10 4C6.691 4 4 6.691 4 10V114C4 117.309 6.691 120 10 120H90C93.309 120 96 117.309 96 114V49.313C96 47.734 95.359 46.188 94.243 45.071L54.929 5.757C53.796 4.624 52.289 4 50.687 4H10Z" fill="#F0F0F0"/>
<path d="M43 110H33V116H43V110Z" fill="#F0F0F0"/>
<path d="M33 116H23V122H33V116Z" fill="#F0F0F0"/>
<path d="M43 98H33V104H43V98Z" fill="#F0F0F0"/>
<path d="M33 104H23V110H33V104Z" fill="#F0F0F0"/>
<path d="M43 86H33V92H43V86Z" fill="#F0F0F0"/>
<path d="M33 92H23V98H33V92Z" fill="#F0F0F0"/>
<path d="M43 74H33V80H43V74Z" fill="#F0F0F0"/>
<path d="M33 80H23V86H33V80Z" fill="#F0F0F0"/>
<path d="M43 62H33V68H43V62Z" fill="#F0F0F0"/>
<path d="M33 68H23V74H33V68Z" fill="#F0F0F0"/>
<path d="M42 27H26C24.9 27 24 27.9 24 29V54C24 55.1 24.9 56 26 56H42C43.1 56 44 55.1 44 54V29C44 27.9 43.1 27 42 27ZM39 43H29V32H39V43Z" fill="#F0F0F0"/>
</svg>
