<svg width="100" height="124" viewBox="0 0 100 124" fill="none" xmlns="http://www.w3.org/2000/svg">
<path d="M90 124H10C4.5 124 0 119.5 0 114V10C0 4.5 4.5 0 10 0H50.7C53.4 0 55.9 1 57.8 2.9L97.1 42.2C99 44.1 100 46.6 100 49.3V114C100 119.5 95.5 124 90 124ZM10 4C6.7 4 4 6.7 4 10V114C4 117.3 6.7 120 10 120H90C93.3 120 96 117.3 96 114V49.3C96 47.7 95.4 46.2 94.2 45.1L54.9 5.8C53.8 4.6 52.3 4 50.7 4H10Z" fill="#F0F0F0"/>
<path d="M98 60H2V64H98V60Z" fill="#F0F0F0"/>
<path d="M98 80H2V84H98V80Z" fill="#F0F0F0"/>
<path d="M98 100H2V104H98V100Z" fill="#F0F0F0"/>
<path d="M38 62H34V122H38V62Z" fill="#F0F0F0"/>
</svg>
