<svg width="47" height="35" viewBox="0 0 47 35" fill="none" xmlns="http://www.w3.org/2000/svg">
<g clip-path="url(#clip0_8_148)">
<path d="M40.4458 20.1067C38.8027 20.1159 37.3798 20.5078 36.1864 21.0912C35.7458 20.2253 35.3052 19.4687 35.2318 18.9037C35.1492 18.2475 35.0483 17.8463 35.1492 17.0626C35.2501 16.2786 35.7091 15.1666 35.7091 15.0755C35.6998 14.9935 35.608 14.5924 34.6626 14.5833C33.7172 14.5742 32.9001 14.7656 32.8083 15.0117C32.7165 15.2578 32.5329 15.8229 32.4136 16.4062C32.2484 17.263 30.5226 20.2981 29.5403 21.8932C29.2191 21.2734 28.9437 20.7265 28.8885 20.2889C28.806 19.6328 28.7049 19.2317 28.806 18.4479C28.9069 17.6639 29.3659 16.5521 29.3659 16.4609C29.3568 16.3789 29.265 15.9778 28.3195 15.9687C27.3739 15.9596 26.557 16.151 26.4652 16.3971C26.3734 16.6432 26.2725 17.2265 26.0705 17.7916C25.8777 18.3567 23.5827 23.4245 22.9861 24.7461C22.6831 25.4205 22.417 25.9583 22.2241 26.3229C22.0314 26.6875 22.215 26.3502 22.1966 26.3867C22.0314 26.6966 21.9396 26.8698 21.9396 26.8698V26.879C21.8111 27.1068 21.6734 27.3255 21.609 27.3255C21.5631 27.3255 21.4713 26.7148 21.6274 25.8764C21.967 24.1172 22.7932 21.3738 22.7841 21.2735C22.7841 21.2279 22.9401 20.7448 22.2516 20.4988C21.5815 20.2527 21.3429 20.6628 21.2877 20.6628C21.2326 20.6628 21.1867 20.8087 21.1867 20.8087C21.1867 20.8087 21.9303 17.7189 19.7639 17.7189C18.4053 17.7189 16.5326 19.1864 15.6055 20.5262C15.018 20.8452 13.7696 21.5196 12.4477 22.2397C11.9428 22.5132 11.4196 22.8048 10.9239 23.0692L10.823 22.9596C8.19758 20.1797 3.34153 18.2109 3.54348 14.4739C3.61692 13.1159 4.09426 9.53383 12.8701 5.19529C20.0578 1.64061 25.8135 2.61587 26.814 4.78514C28.2368 7.88409 23.7388 13.6445 16.2666 14.4739C13.4209 14.7929 11.9245 13.6992 11.5483 13.289C11.1535 12.8607 11.0985 12.8424 10.9516 12.9245C10.7129 13.0521 10.8598 13.4349 10.9516 13.6627C11.1719 14.237 12.0899 15.2578 13.6504 15.7682C15.0181 16.2148 18.3596 16.4609 22.3986 14.9114C26.9242 13.1705 30.4584 8.33982 29.4211 4.30206C28.3654 0.191388 21.499 -1.15757 15.009 1.13019C11.1443 2.49738 6.95832 4.63019 3.94738 7.42836C0.367307 10.7461 -0.201833 13.6445 0.0368384 14.8476C0.872282 19.1406 6.82981 21.9388 9.21652 24.0078C9.09719 24.0715 8.98703 24.1353 8.88606 24.1901C7.6927 24.7733 3.14875 27.1341 2.01047 29.6314C0.725315 32.4569 2.21242 34.4896 3.20383 34.763C6.26985 35.6106 9.4093 34.0885 11.1075 31.582C12.7965 29.0755 12.5946 25.8216 11.8144 24.3359L11.7867 24.2812L12.7231 23.7343C13.329 23.3789 13.9257 23.0508 14.4489 22.7681C14.1552 23.5611 13.944 24.4999 13.8339 25.8671C13.7054 27.4713 14.3663 29.5494 15.2384 30.3697C15.6239 30.725 16.0829 30.7343 16.3675 30.7343C17.3773 30.7343 17.8363 29.9047 18.3411 28.9113C18.9654 27.6991 19.5161 26.2955 19.5161 26.2955C19.5161 26.2955 18.8277 30.0962 20.7095 30.0962C21.398 30.0962 22.0864 29.2121 22.3986 28.7564V28.7655C22.3986 28.7655 22.4169 28.7382 22.4536 28.6744C22.4921 28.6178 22.5289 28.5601 22.5638 28.5013V28.483C22.8392 28.0091 23.4542 26.9245 24.3722 25.1289C25.5563 22.8138 26.6946 19.9153 26.6946 19.9153C26.6946 19.9153 26.8048 20.6263 27.1445 21.7929C27.3463 22.4857 27.7869 23.2422 28.1266 23.9804C27.8512 24.3633 27.686 24.5821 27.686 24.5821L27.6951 24.5912C27.4749 24.8829 27.227 25.1929 26.97 25.5027C26.0337 26.6146 24.9138 27.8817 24.7669 28.2462C24.5925 28.6745 24.6292 28.9936 24.9689 29.2489C25.2167 29.4311 25.6573 29.4675 26.1255 29.4311C26.97 29.3764 27.5575 29.1668 27.8513 29.0391C28.3103 28.8751 28.8335 28.629 29.3384 28.2644C30.2564 27.59 30.8163 26.633 30.7612 25.3569C30.7337 24.6551 30.5042 23.9624 30.2196 23.3061C30.3023 23.1877 30.385 23.0691 30.4675 22.9416C31.9179 20.836 33.0378 18.521 33.0378 18.521C33.0378 18.521 33.148 19.2319 33.4876 20.3986C33.6619 20.991 34.0109 21.6383 34.323 22.2763C32.9644 23.3792 32.1107 24.6552 31.8169 25.4937C31.2753 27.0432 31.6976 27.745 32.4962 27.9091C32.8541 27.982 33.3683 27.818 33.7537 27.6539C34.2311 27.4989 34.8094 27.2345 35.3419 26.8427C36.2599 26.1682 37.1411 25.2294 37.0952 23.9625C37.0677 23.3792 36.9116 22.8049 36.7005 22.2581C37.8571 21.7841 39.3533 21.5107 41.2536 21.7385C45.3386 22.2125 46.1464 24.7463 45.9904 25.8036C45.8344 26.861 44.9807 27.4443 44.696 27.6265C44.4114 27.7997 44.3196 27.8636 44.3472 27.9911C44.3839 28.1826 44.5124 28.1734 44.7603 28.1371C45.0999 28.0823 46.9083 27.2712 46.9818 25.3207C47.0919 22.8139 44.696 20.0795 40.4458 20.1067ZM8.94113 30.6523C7.59172 32.1198 5.69152 32.6758 4.88371 32.2018C4.01164 31.7005 4.3512 29.5403 6.01281 27.9817C7.02258 27.0338 8.33527 26.1588 9.19816 25.6211C9.39094 25.5026 9.68469 25.3295 10.0335 25.1198C10.0886 25.0834 10.1253 25.0651 10.1253 25.0651C10.1896 25.0286 10.263 24.983 10.3364 24.9375C10.9515 27.1614 10.364 29.1119 8.94113 30.6523ZM18.8093 23.9896C18.3411 25.1289 17.3497 28.0547 16.753 27.8906C16.2389 27.7539 15.9269 25.539 16.652 23.3515C17.0192 22.2486 17.7994 20.9362 18.2584 20.4257C19.0021 19.6054 19.8098 19.3319 20.0118 19.6692C20.2505 20.1067 19.103 23.2786 18.8093 23.9896ZM26.9517 27.8541C26.7497 27.9545 26.5661 28.0273 26.4835 27.9727C26.4193 27.9363 26.566 27.7995 26.566 27.7995C26.566 27.7995 27.585 26.7149 27.9889 26.2136C28.2184 25.922 28.4938 25.5848 28.7875 25.2019V25.3113C28.7876 26.6237 27.5208 27.4987 26.9517 27.8541ZM33.2305 26.4323C33.0836 26.3229 33.1021 25.9856 33.5977 24.9284C33.7905 24.5091 34.2311 23.8073 34.993 23.1419C35.0848 23.4153 35.14 23.6796 35.1307 23.9258C35.1216 25.5664 33.9466 26.1771 33.2305 26.4323Z" fill="#CF649A"/>
</g>
<defs>
<clipPath id="clip0_8_148">
<rect width="47" height="35" fill="white"/>
</clipPath>
</defs>
</svg>
