<svg width="41" height="41" viewBox="0 0 41 41" fill="none" xmlns="http://www.w3.org/2000/svg">
<path d="M0.640625 20.4712V40.4907H40.6797V0.45166H0.640625V20.4712ZM32.9057 18.8696C33.8647 19.0922 34.7363 19.5937 35.4105 20.311C35.7817 20.6975 36.1044 21.1277 36.3715 21.5923C36.3715 21.6435 34.6418 22.8127 33.588 23.4661C33.5495 23.4917 33.3958 23.3252 33.226 23.0721C33.0336 22.7402 32.7603 22.4624 32.4315 22.2647C32.1027 22.0669 31.7292 21.9557 31.3458 21.9414C30.1318 21.8581 29.3502 22.4956 29.3566 23.543C29.3466 23.8038 29.4063 24.0625 29.5296 24.2925C29.7955 24.8467 30.292 25.1766 31.8487 25.8492C34.7155 27.0824 35.9423 27.896 36.7046 29.0524C37.5566 30.3336 37.7456 32.4028 37.1691 33.9339C36.5284 35.5996 34.9589 36.7303 32.7391 37.105C31.7253 37.2211 30.7009 37.2104 29.6898 37.073C28.1466 36.8226 26.723 36.0879 25.625 34.9749C25.2566 34.5681 24.5391 33.5079 24.584 33.431C24.7009 33.3442 24.824 33.2661 24.9523 33.1972L26.4258 32.3516L27.5757 31.6853L27.8159 32.0409C28.2214 32.6208 28.7373 33.115 29.3342 33.4951C30.6155 34.1678 32.3644 34.0749 33.2292 33.2965C33.5196 33.0113 33.7007 32.6333 33.7411 32.2282C33.7815 31.8232 33.6786 31.4169 33.4502 31.0799C33.1299 30.6347 32.4893 30.2599 30.6987 29.4784C28.6327 28.5879 27.7423 28.037 26.9287 27.1593C26.4208 26.5802 26.0458 25.8969 25.83 25.1574C25.6691 24.3125 25.6453 23.4473 25.7595 22.5949C26.1855 20.5993 27.6814 19.206 29.8659 18.7928C30.8776 18.6676 31.9024 18.6957 32.9057 18.876V18.8696ZM23.5077 20.5481V22.1881H18.3091V36.9961H14.6223V22.1849H9.41078V20.5833C9.39679 20.032 9.41176 19.4803 9.45563 18.9305C9.47484 18.9049 12.6588 18.8921 16.5025 18.8985H23.4885L23.5077 20.5481Z" fill="#007ACC"/>
</svg>
