<svg width="1270" height="900" viewBox="0 0 1270 900" fill="none" xmlns="http://www.w3.org/2000/svg">
<rect width="1270" height="900" fill="#FDFDFE"/>
<path opacity="0.05" fill-rule="evenodd" clip-rule="evenodd" d="M0 773V349.992H20.1885V531.862H233.436V349.992H289.217V773H233.436V577.475H20.1885V773H0ZM451.622 767.771C469.441 775.131 489.293 778.811 511.18 778.811C531.904 778.811 549.82 775.905 564.927 770.095C580.228 764.284 593.108 756.73 603.567 747.434C614.026 738.137 622.645 728.356 629.424 718.09L596.885 692.233C587.007 705.21 575.483 715.572 562.312 723.32C549.142 731.067 533.066 734.941 514.085 734.941C499.365 734.941 486.194 732.132 474.573 726.516C463.146 720.899 453.365 713.151 445.23 703.273C437.289 693.396 431.188 681.968 426.927 668.991C423.231 657.024 421.214 644.338 420.877 630.932H633.492V606.818C633.492 584.738 630.974 564.401 625.938 545.808C620.902 527.02 613.155 510.751 602.696 496.999C592.237 483.054 578.776 472.207 562.312 464.46C546.043 456.713 526.674 452.839 504.207 452.839C486.582 452.839 469.537 456.422 453.074 463.588C436.611 470.755 421.891 481.311 408.914 495.256C395.937 509.201 385.672 526.245 378.118 546.389C370.564 566.338 366.788 589.096 366.788 614.663V626.865C366.788 648.945 370.177 669.282 376.956 687.875C383.735 706.469 393.419 722.545 406.009 736.103C418.792 749.661 433.996 760.217 451.622 767.771ZM422.45 587.062C423.465 578.987 424.958 571.433 426.927 564.401C430.994 549.875 436.708 537.576 444.068 527.504C451.428 517.433 460.241 509.879 470.506 504.843C480.771 499.614 492.005 496.999 504.207 496.999C522.607 496.999 537.133 501.26 547.786 509.782C558.439 518.304 566.186 529.151 571.028 542.321C576.064 555.492 578.969 569.05 579.744 582.995V587.062H422.45ZM754.642 773V326.75H700.604V773H754.642ZM899.324 773V326.75H845.286V773H899.324ZM971.375 612.629V619.311C971.375 641.972 974.668 662.987 981.253 682.355C987.838 701.724 997.329 718.671 1009.72 733.198C1022.31 747.53 1037.42 758.764 1055.05 766.899C1072.67 774.84 1092.52 778.811 1114.6 778.811C1136.69 778.811 1156.44 774.84 1173.87 766.899C1191.5 758.764 1206.51 747.53 1218.9 733.198C1231.49 718.671 1241.08 701.724 1247.67 682.355C1254.25 662.987 1257.54 641.972 1257.54 619.311V612.629C1257.54 589.968 1254.25 568.953 1247.67 549.584C1241.08 530.022 1231.49 513.075 1218.9 498.742C1206.51 484.216 1191.4 472.982 1173.58 465.041C1155.96 456.906 1136.1 452.839 1114.02 452.839C1092.14 452.839 1072.38 456.906 1054.76 465.041C1037.13 472.982 1022.12 484.216 1009.72 498.742C997.329 513.075 987.838 530.022 981.253 549.584C974.668 568.953 971.375 589.968 971.375 612.629ZM1025.12 619.311V612.629C1025.12 597.134 1026.96 582.511 1030.64 568.759C1034.32 554.814 1039.84 542.515 1047.2 531.862C1054.76 521.016 1064.05 512.494 1075.09 506.296C1086.33 500.098 1099.3 496.999 1114.02 496.999C1128.94 496.999 1141.91 500.098 1152.95 506.296C1164.19 512.494 1173.49 521.016 1180.85 531.862C1188.4 542.515 1194.02 554.814 1197.7 568.759C1201.57 582.511 1203.51 597.134 1203.51 612.629V619.311C1203.51 635 1201.57 649.816 1197.7 663.762C1194.02 677.513 1188.5 689.715 1181.14 700.368C1173.78 711.021 1164.48 719.446 1153.25 725.644C1142.21 731.648 1129.33 734.65 1114.6 734.65C1099.69 734.65 1086.62 731.648 1075.38 725.644C1064.15 719.446 1054.76 711.021 1047.2 700.368C1039.84 689.715 1034.32 677.513 1030.64 663.762C1026.96 649.816 1025.12 635 1025.12 619.311Z" fill="black"/>
</svg>
